<!--?xml version="1.0" standalone="no"?-->
              <svg id="sw-js-blob-svg" viewBox="0 0 100 100" xmlns="http://www.w3.org/2000/svg" version="1.1">
                    <defs> 
                        <linearGradient id="sw-gradient" x1="0" x2="1" y1="1" y2="0">
                            <stop id="stop1" stop-color="rgba(68.154, 197.893, 215.346, 1)" offset="0%"></stop>
                            <stop id="stop2" stop-color="rgba(157.584, 31, 251, 1)" offset="100%"></stop>
                        </linearGradient>
                    </defs>
                <path fill="url(#sw-gradient)" d="M6.6,-6.3C10,-5,15.3,-4.3,15.8,-2.6C16.3,-0.9,12,1.8,10.8,8.3C9.5,14.8,11.2,25.1,7.1,32.1C3,39.1,-7,42.8,-12.3,38.7C-17.6,34.6,-18.2,22.7,-21.6,13.9C-25,5.1,-31.1,-0.7,-32.6,-8.1C-34.1,-15.5,-31.1,-24.5,-24.9,-25.2C-18.7,-26,-9.4,-18.6,-3.9,-14C1.6,-9.3,3.2,-7.5,6.6,-6.3Z" width="100%" height="100%" transform="translate(50 50)" style="transition: 0.3s;" stroke-width="0" stroke="url(#sw-gradient)"></path>
              </svg>